<svg width="692" height="178" viewBox="0 0 692 178" fill="none" xmlns="http://www.w3.org/2000/svg">
<path d="M27.752 177.032C23.0907 177.032 18.2453 175.989 13.216 173.904C8.30933 171.941 4.81333 168.752 2.728 164.336C1.86933 162.741 1.31733 161.024 1.072 159.184C0.949334 157.467 0.888 155.749 0.888 154.032V152.008C0.888 151.027 1.01067 150.107 1.256 149.248C1.50133 148.512 2.11467 148.144 3.096 148.144C3.34133 148.144 3.464 148.267 3.464 148.512C3.464 149.248 3.40267 149.984 3.28 150.72C3.15733 151.456 3.096 152.253 3.096 153.112C3.096 158.755 4.87467 163.048 8.432 165.992C12.112 168.936 16.6507 170.408 22.048 170.408C29.776 170.408 36.8907 168.507 43.392 164.704C49.8933 160.901 55.7813 155.688 61.056 149.064C66.208 142.685 70.3787 136.429 73.568 130.296C76.88 124.285 79.7627 118.152 82.216 111.896C84.6693 105.64 87.184 99.2 89.76 92.576C86.5707 97.36 82.1547 101.776 76.512 105.824C70.8693 109.749 64.736 112.877 58.112 115.208C51.6107 117.661 45.2933 118.888 39.16 118.888C32.6587 118.888 26.5253 117.723 20.76 115.392C15.1173 113.184 10.5787 109.811 7.144 105.272C3.70933 100.733 1.992 95.0293 1.992 88.16C1.992 80.1867 3.52533 72.3973 6.592 64.792C9.65867 57.1867 13.768 50.1333 18.92 43.632C24.072 37.008 29.8373 31.304 36.216 26.52C41.8587 22.2267 48.36 18.7307 55.72 16.032C63.2027 13.3333 70.624 11.984 77.984 11.984C81.0507 11.984 83.9333 12.2293 86.632 12.72C89.3307 13.088 92.0907 13.9467 94.912 15.296C97.3653 16.4 99.328 17.8107 100.8 19.528C102.272 21.1227 103.008 22.9627 103.008 25.048C103.008 25.2933 103.008 25.6 103.008 25.968C103.008 26.336 102.947 26.6427 102.824 26.888C102.333 28.8507 101.168 31.12 99.328 33.696C97.6107 36.1493 96.2613 38.7253 95.28 41.424C95.1573 41.9147 94.4827 42.344 93.256 42.712C92.0293 42.9573 91.5387 42.8347 91.784 42.344C92.7653 40.7493 93.5013 38.7867 93.992 36.456C94.6053 34.1253 94.912 31.7947 94.912 29.464C94.912 27.7467 94.728 26.152 94.36 24.68C94.1147 23.0853 93.624 21.736 92.888 20.632C91.6613 18.424 89.76 16.8907 87.184 16.032C84.608 15.1733 81.848 14.744 78.904 14.744C76.0827 14.744 73.2613 15.0507 70.44 15.664C67.6187 16.2773 65.1653 16.952 63.08 17.688C55.9653 20.264 49.1573 24.312 42.656 29.832C36.8907 34.8613 31.7387 40.688 27.2 47.312C22.784 53.936 19.288 60.744 16.712 67.736C14.136 74.728 12.848 81.4133 12.848 87.792C12.848 94.2933 14.0747 99.568 16.528 103.616C19.104 107.664 22.4773 110.669 26.648 112.632C30.8187 114.472 35.296 115.392 40.08 115.392C50.016 115.392 58.7253 113.123 66.208 108.584C73.8133 103.923 80.2533 97.8507 85.528 90.368C90.8027 82.8853 94.8507 74.8507 97.672 66.264H78.72C77.248 66.264 75.224 66.3867 72.648 66.632C70.072 66.7547 67.4347 67.184 64.736 67.92C62.0373 68.5333 59.768 69.576 57.928 71.048C56.088 72.52 55.168 74.544 55.168 77.12C55.168 77.9787 55.2907 78.8987 55.536 79.88C55.7813 80.7387 55.9653 81.4133 56.088 81.904L54.432 83.008C53.5733 81.4133 52.5307 79.7573 51.304 78.04C50.2 76.2 49.5867 74.728 49.464 73.624C49.3413 72.6427 49.4027 71.3547 49.648 69.76C49.8933 68.1653 50.6907 66.7547 52.04 65.528C53.512 64.1787 55.5973 63.32 58.296 62.952C61.1173 62.4613 64 62.216 66.944 62.216C69.6427 62.216 72.2187 62.3387 74.672 62.584C77.1253 62.7067 79.088 62.768 80.56 62.768H115.52L113.496 64.976C111.779 64.976 109.877 65.2827 107.792 65.896C105.707 66.3867 103.989 67.4907 102.64 69.208C99.9413 72.6427 97.856 76.5067 96.384 80.8C95.0347 85.0933 93.624 89.632 92.152 94.416C89.6987 103.125 87.3067 111.651 84.976 119.992C82.6453 128.456 79.5173 136.429 75.592 143.912C71.7893 151.517 66.208 158.509 58.848 164.888C54.9227 168.2 50.016 171.021 44.128 173.352C38.24 175.805 32.7813 177.032 27.752 177.032ZM117.76 114.472C112.73 114.472 109.234 113.491 107.272 111.528C105.309 109.565 104.328 107.173 104.328 104.352C104.328 100.795 105.248 96.992 107.088 92.944C109.05 88.896 110.89 85.4613 112.608 82.64C114.57 79.696 117.208 76.6293 120.52 73.44C123.832 70.2507 127.45 67.552 131.376 65.344C135.301 63.136 139.104 62.032 142.784 62.032C145.973 62.032 148.181 62.8293 149.408 64.424C150.634 65.896 151.248 67.6747 151.248 69.76C151.248 73.5627 150.082 76.6907 147.752 79.144C145.544 81.5973 142.784 83.6213 139.472 85.216C136.16 86.688 132.97 87.9147 129.904 88.896C128.064 89.3867 125.917 89.8773 123.464 90.368C121.01 90.8587 118.68 91.104 116.472 91.104C115.613 93.312 114.938 95.4587 114.448 97.544C113.957 99.6293 113.712 101.531 113.712 103.248C113.712 105.333 114.202 107.051 115.184 108.4C116.288 109.749 118.066 110.424 120.52 110.424C121.501 110.424 122.666 110.301 124.016 110.056C125.365 109.811 126.837 109.443 128.432 108.952C132.112 107.725 135.73 105.763 139.288 103.064C142.845 100.365 146.096 97.4827 149.04 94.416C152.106 91.2267 154.437 88.5893 156.032 86.504C156.4 86.872 156.584 87.3013 156.584 87.792C156.584 88.4053 156.154 89.3867 155.296 90.736C152.842 94.1707 149.653 97.728 145.728 101.408C141.802 105.088 137.448 108.216 132.664 110.792C127.88 113.245 122.912 114.472 117.76 114.472ZM117.944 87.424C119.538 87.5467 121.317 87.5467 123.28 87.424C125.365 87.1787 127.389 86.7493 129.352 86.136C134.381 84.664 138 82.3333 140.208 79.144C142.538 75.832 143.704 72.888 143.704 70.312C143.704 68.84 143.397 67.6133 142.784 66.632C142.17 65.6507 141.189 65.16 139.84 65.16C136.282 65.16 133.093 66.5093 130.272 69.208C127.45 71.784 124.997 74.7893 122.912 78.224C120.826 81.6587 119.17 84.7253 117.944 87.424ZM160.452 113.552C159.225 113.552 158.183 113.307 157.324 112.816C156.465 112.325 156.036 111.405 156.036 110.056C156.036 108.339 156.465 106.315 157.324 103.984C158.305 101.653 159.348 99.3227 160.452 96.992C161.556 94.6613 162.476 92.76 163.212 91.288C163.825 90.184 164.623 88.4667 165.604 86.136C166.708 83.6827 167.812 81.168 168.916 78.592C170.143 75.8933 171.124 73.624 171.86 71.784C172.719 69.944 173.148 69.024 173.148 69.024C172.044 70.2507 170.572 71.968 168.732 74.176C167.015 76.384 165.113 78.7147 163.028 81.168C161.065 83.4987 159.225 85.7067 157.508 87.792C155.913 89.8773 154.748 91.4107 154.012 92.392C153.644 92.8827 153.337 93.128 153.092 93.128C152.847 93.128 152.724 92.8213 152.724 92.208C152.724 91.2267 153.031 90.3067 153.644 89.448C155.116 87.608 156.895 85.4 158.98 82.824C161.065 80.1253 163.151 77.4267 165.236 74.728C167.444 72.0293 169.345 69.6373 170.94 67.552C169.959 67.552 168.671 67.6133 167.076 67.736C165.604 67.8587 164.255 68.0427 163.028 68.288C161.801 68.4107 161.127 68.472 161.004 68.472C160.391 68.472 160.452 67.9813 161.188 67C161.924 66.0187 162.905 65.0373 164.132 64.056C165.359 63.0747 166.279 62.584 166.892 62.584C167.015 62.584 167.996 62.6453 169.836 62.768C171.676 62.768 173.025 62.768 173.884 62.768C176.337 59.456 178.729 55.6533 181.06 51.36C183.513 47.0667 185.905 42.344 188.236 37.192C189.217 37.0693 190.873 36.3947 193.204 35.168C195.657 33.8187 197.559 32.4693 198.908 31.12C199.521 30.5067 200.012 30.2 200.38 30.2C201.116 30.2 201.116 30.6907 200.38 31.672C199.521 32.6533 198.049 34.7387 195.964 37.928C193.879 40.9947 191.548 44.736 188.972 49.152C186.396 53.4453 183.943 57.984 181.612 62.768H196.516C197.865 62.768 198.54 62.952 198.54 63.32C198.54 63.8107 197.62 64.3013 195.78 64.792C193.695 65.4053 191.487 65.7733 189.156 65.896C186.948 66.0187 184.863 66.264 182.9 66.632C181.06 67 179.711 67.7973 178.852 69.024C178.116 69.8827 177.073 71.7227 175.724 74.544C174.375 77.3653 172.903 80.616 171.308 84.296C169.836 87.8533 168.548 91.472 167.444 95.152C166.34 98.7093 165.665 101.715 165.42 104.168V104.904C165.42 105.885 165.727 106.683 166.34 107.296C166.953 107.909 167.567 108.216 168.18 108.216C169.775 108.216 171.799 107.235 174.252 105.272C176.828 103.309 179.465 100.979 182.164 98.28C184.863 95.4587 187.193 92.8827 189.156 90.552C190.015 89.5707 190.751 88.6507 191.364 87.792C192.1 86.9333 192.529 86.3813 192.652 86.136C192.897 86.6267 193.02 86.9947 193.02 87.24C193.02 87.976 192.775 88.7733 192.284 89.632C191.916 90.4907 191.487 91.2267 190.996 91.84C188.665 94.9067 185.844 98.1573 182.532 101.592C179.22 104.904 175.663 107.725 171.86 110.056C168.18 112.387 164.377 113.552 160.452 113.552ZM235.742 114.84C231.94 114.84 228.321 113.797 224.886 111.712C221.452 109.504 218.876 106.192 217.158 101.776C216.545 100.181 216.116 98.5253 215.87 96.808C215.625 94.968 215.502 93.1893 215.502 91.472C215.502 89.7547 215.809 88.896 216.422 88.896C217.158 88.896 217.526 89.3867 217.526 90.368C217.526 96.1333 218.937 100.488 221.758 103.432C224.702 106.376 228.321 107.848 232.614 107.848C236.908 107.848 241.017 106.621 244.942 104.168C248.99 101.715 252.732 98.5867 256.166 94.784C261.809 88.6507 266.593 82.456 270.518 76.2C274.444 69.8213 278.001 63.32 281.19 56.696C284.502 49.9493 287.814 42.9573 291.126 35.72C293.212 31.304 295.788 27.44 298.854 24.128C302.044 20.816 305.846 18.5467 310.262 17.32L310.446 17.136H300.326C296.033 17.136 291.494 17.32 286.71 17.688C281.926 18.056 277.572 18.8533 273.646 20.08C269.844 21.3067 267.084 23.1467 265.366 25.6C264.262 27.1947 263.71 29.0347 263.71 31.12C263.71 33.2053 264.262 35.2293 265.366 37.192C266.47 39.1547 267.881 40.5653 269.598 41.424C269.844 41.6693 269.966 41.8533 269.966 41.976C269.966 42.2213 269.66 42.528 269.046 42.896C268.556 43.1413 268.004 43.2027 267.39 43.08C266.409 42.4667 265.182 41.4853 263.71 40.136C262.238 38.664 260.889 37.1307 259.662 35.536C258.558 33.9413 257.822 32.592 257.454 31.488C256.964 30.016 256.718 28.544 256.718 27.072C256.718 24.128 257.761 21.736 259.846 19.896C262.054 18.056 264.876 16.6453 268.31 15.664C271.745 14.6827 275.425 14.008 279.35 13.64C283.398 13.1493 287.262 12.904 290.942 12.904C294.745 12.7813 297.996 12.72 300.694 12.72H320.566C320.812 12.72 320.934 12.7813 320.934 12.904C320.934 13.272 320.505 13.824 319.646 14.56C318.91 15.1733 318.42 15.48 318.174 15.48C315.108 16.0933 312.838 17.7493 311.366 20.448C309.894 23.024 309.22 27.1947 309.342 32.96C309.342 32.96 309.342 34.3093 309.342 37.008C309.465 39.7067 309.588 43.2027 309.71 47.496C309.833 51.7893 309.956 56.3893 310.078 61.296C310.201 66.2027 310.324 70.9253 310.446 75.464C310.569 80.0027 310.692 83.8053 310.814 86.872V87.976L374.662 20.632C378.71 16.3387 382.697 12.72 386.622 9.77599C390.67 6.70933 394.841 5.36 399.134 5.728C399.257 5.728 399.318 5.78933 399.318 5.912C399.441 5.912 399.502 5.912 399.502 5.912C399.502 6.27999 399.257 6.70932 398.766 7.19999C398.276 7.69066 397.724 7.99733 397.11 8.11999C393.921 7.99733 391.038 9.22399 388.462 11.8C385.886 14.376 383.494 17.4427 381.286 21C380.182 22.84 378.526 25.784 376.318 29.832C374.11 33.7573 371.596 38.4187 368.774 43.816C366.076 49.2133 363.316 54.9173 360.494 60.928C357.673 66.9387 355.036 72.8267 352.582 78.592C350.252 84.3573 348.35 89.632 346.878 94.416C345.406 99.0773 344.67 102.88 344.67 105.824C344.67 109.259 345.836 110.976 348.166 110.976C349.148 110.976 350.19 110.731 351.294 110.24C352.889 109.627 354.668 108.707 356.63 107.48C358.593 106.253 360.372 104.843 361.966 103.248C365.156 100.181 367.977 97.0533 370.43 93.864C372.884 90.552 374.356 88.6507 374.846 88.16C375.214 87.6693 375.521 87.424 375.766 87.424C376.257 87.424 376.502 87.792 376.502 88.528C376.502 89.264 376.257 89.9387 375.766 90.552C374.785 91.7787 373.129 93.9253 370.798 96.992C368.468 99.936 365.708 102.941 362.518 106.008C359.452 109.075 356.14 111.405 352.582 113C351.478 113.491 350.313 113.859 349.086 114.104C347.86 114.472 346.633 114.656 345.406 114.656C342.708 114.656 340.254 113.859 338.046 112.264C335.961 110.547 334.918 107.725 334.918 103.8C334.918 99.9973 335.777 95.704 337.494 90.92C339.334 86.0133 341.358 81.2907 343.566 76.752C345.897 72.0907 347.798 68.1653 349.27 64.976C350.865 61.664 352.889 57.432 355.342 52.28C357.796 47.128 360.617 41.9147 363.806 36.64L310.814 92.576C310.692 93.5573 310.262 94.5387 309.526 95.52C308.79 96.3787 307.625 97.1147 306.03 97.728C305.172 98.096 304.006 99.0773 302.534 100.672C301.062 102.267 300.081 103.371 299.59 103.984C299.59 104.107 299.406 104.168 299.038 104.168C298.67 104.168 298.302 104.045 297.934 103.8C297.566 103.555 297.444 103.371 297.566 103.248C300.756 99.2 302.412 93.6187 302.534 86.504L302.718 82.088C302.964 76.936 303.148 71.5387 303.27 65.896C303.393 60.1307 303.454 54.7947 303.454 49.888C303.577 44.8587 303.638 40.8107 303.638 37.744C303.638 34.5547 303.638 32.96 303.638 32.96C303.638 30.016 304.068 27.44 304.926 25.232C305.785 23.024 306.828 21.1227 308.054 19.528C305.969 21.1227 303.945 23.024 301.982 25.232C300.02 27.44 298.364 29.8933 297.014 32.592C295.174 36.3947 293.089 41.3013 290.758 47.312C288.428 53.3227 285.729 59.7013 282.662 66.448C279.718 73.1947 276.406 79.8187 272.726 86.32C269.169 92.6987 265.182 98.2187 260.766 102.88C257.7 106.192 253.774 109.013 248.99 111.344C244.329 113.675 239.913 114.84 235.742 114.84ZM340.453 177.4C335.791 177.4 331.314 176.296 327.021 174.088C322.605 172.003 319.354 168.752 317.269 164.336C316.41 162.741 315.858 161.024 315.613 159.184C315.367 157.467 315.245 155.749 315.245 154.032V152.192C315.245 151.211 315.367 150.291 315.613 149.432C315.858 148.573 316.533 148.144 317.637 148.144C317.882 148.144 318.005 148.267 318.005 148.512C318.005 149.248 317.943 149.984 317.821 150.72C317.698 151.456 317.637 152.253 317.637 153.112C317.637 158.755 319.477 163.048 323.157 165.992C326.714 168.936 331.191 170.408 336.589 170.408C338.797 170.408 341.066 170.163 343.397 169.672C345.727 169.181 347.874 168.507 349.837 167.648C357.687 164.336 364.495 159.552 370.261 153.296C376.149 147.04 381.239 139.987 385.533 132.136C389.949 124.285 393.813 116.251 397.125 108.032C400.559 99.6907 403.749 91.84 406.693 84.48C404.117 88.6507 401.295 92.392 398.229 95.704C395.162 98.8933 391.727 102.083 387.925 105.272C385.594 107.235 383.018 109.075 380.197 110.792C377.498 112.509 374.554 113.368 371.365 113.368C370.138 113.368 369.279 113 368.789 112.264C368.298 111.405 368.053 110.424 368.053 109.32V108.032C368.666 103.248 370.199 98.28 372.653 93.128C375.229 87.976 378.295 83.1307 381.853 78.592C385.41 74.0533 389.029 70.3733 392.709 67.552C396.879 64.3627 401.479 62.768 406.509 62.768H427.669C428.282 62.768 428.589 63.0133 428.589 63.504C428.589 64.4853 428.037 64.976 426.933 64.976C425.583 64.976 424.295 65.528 423.069 66.632C421.842 67.736 420.922 68.7787 420.309 69.76C419.082 71.7227 417.487 74.728 415.525 78.776C413.562 82.824 411.415 87.4853 409.085 92.76C406.754 97.912 404.423 103.187 402.093 108.584C399.762 113.859 397.615 118.827 395.653 123.488C392.709 130.48 389.335 137.288 385.533 143.912C381.853 150.659 377.437 156.669 372.285 161.944C367.255 167.341 361.245 171.573 354.253 174.64C350.082 176.48 345.482 177.4 340.453 177.4ZM378.909 107.112C380.381 107.112 382.405 106.069 384.981 103.984C387.557 101.776 390.378 99.0773 393.445 95.888C396.511 92.576 399.394 89.1413 402.093 85.584C404.791 81.904 406.999 78.592 408.717 75.648C410.557 72.5813 411.477 70.2507 411.477 68.656C411.477 67.3067 411.047 66.3867 410.189 65.896C409.453 65.4053 408.471 65.16 407.245 65.16C405.282 65.16 403.197 65.896 400.989 67.368C398.781 68.7173 397.002 70.0667 395.653 71.416C394.181 72.7653 392.402 74.912 390.317 77.856C388.354 80.6773 386.33 83.8053 384.245 87.24C382.282 90.6747 380.626 93.9867 379.277 97.176C377.927 100.365 377.253 102.941 377.253 104.904C377.253 106.376 377.805 107.112 378.909 107.112ZM447.108 113.552C445.881 113.552 444.839 113.307 443.98 112.816C443.121 112.325 442.692 111.405 442.692 110.056C442.692 108.339 443.121 106.376 443.98 104.168C444.839 101.96 445.82 99.8133 446.924 97.728C448.028 95.52 449.009 93.7413 449.868 92.392C445.575 96.9307 441.097 101.224 436.436 105.272C434.105 107.235 431.529 109.075 428.708 110.792C425.887 112.509 422.881 113.368 419.692 113.368C418.465 113.368 417.607 113 417.116 112.264C416.625 111.405 416.38 110.424 416.38 109.32C416.38 108.707 416.441 108.277 416.564 108.032C417.177 103.248 418.711 98.28 421.164 93.128C423.617 87.976 426.623 83.1307 430.18 78.592C433.737 74.0533 437.356 70.3733 441.036 67.552C445.207 64.3627 449.807 62.768 454.836 62.768H475.996C476.609 62.768 476.916 63.0133 476.916 63.504C476.916 64.4853 476.364 64.976 475.26 64.976C474.033 64.976 472.807 65.7733 471.58 67.368C470.353 68.84 469.433 70.0667 468.82 71.048C467.961 72.3973 466.612 74.6667 464.772 77.856C462.932 81.0453 461.031 84.5413 459.068 88.344C457.228 92.024 455.633 95.4587 454.284 98.648C452.935 101.837 452.26 104.168 452.26 105.64C452.26 107.357 453.119 108.216 454.836 108.216C456.676 108.216 458.761 107.357 461.092 105.64C463.423 103.923 465.753 101.837 468.084 99.384C470.537 96.808 472.745 94.2933 474.708 91.84C476.793 89.264 478.449 87.24 479.676 85.768C480.412 86.504 480.351 87.5467 479.492 88.896C478.756 90.1227 478.081 91.104 477.468 91.84C475.015 95.0293 472.193 98.3413 469.004 101.776C465.815 105.088 462.319 107.909 458.516 110.24C454.836 112.448 451.033 113.552 447.108 113.552ZM427.236 107.112C428.708 107.112 430.732 106.069 433.308 103.984C436.007 101.776 438.889 99.0773 441.956 95.888C445.023 92.576 447.905 89.1413 450.604 85.584C453.303 81.904 455.511 78.592 457.228 75.648C459.068 72.5813 459.988 70.2507 459.988 68.656C459.988 67.3067 459.559 66.3867 458.7 65.896C457.964 65.4053 456.983 65.16 455.756 65.16C453.793 65.16 451.647 65.896 449.316 67.368C447.108 68.7173 445.329 70.0667 443.98 71.416C442.508 72.7653 440.729 74.912 438.644 77.856C436.681 80.6773 434.719 83.8053 432.756 87.24C430.793 90.6747 429.137 93.9867 427.788 97.176C426.439 100.365 425.764 102.941 425.764 104.904C425.764 106.376 426.255 107.112 427.236 107.112ZM501.194 113.552C499.967 113.552 498.925 113.307 498.066 112.816C497.207 112.325 496.778 111.405 496.778 110.056C496.778 108.339 497.207 106.376 498.066 104.168C498.925 101.96 499.906 99.8133 501.01 97.728C502.114 95.52 503.095 93.7413 503.954 92.392C499.661 96.9307 495.183 101.224 490.522 105.272C488.191 107.235 485.615 109.075 482.794 110.792C479.973 112.509 476.967 113.368 473.778 113.368C472.551 113.368 471.693 113 471.202 112.264C470.711 111.405 470.466 110.424 470.466 109.32C470.466 108.707 470.527 108.277 470.65 108.032C471.263 103.248 472.797 98.28 475.25 93.128C477.703 87.976 480.709 83.1307 484.266 78.592C487.823 74.0533 491.442 70.3733 495.122 67.552C497.943 65.4667 500.642 64.1787 503.218 63.688C505.794 63.0747 508.615 62.768 511.682 62.768H517.754C519.717 59.456 521.741 55.776 523.826 51.728C526.034 47.5573 528.181 43.448 530.266 39.4C532.474 35.352 534.498 31.7947 536.338 28.728C541.367 20.1413 546.887 13.272 552.898 8.11999C559.031 2.96799 565.839 0.391991 573.322 0.391991C574.917 0.391991 576.389 0.882659 577.738 1.86399C579.087 2.72266 579.701 4.072 579.578 5.912L579.21 12.536C579.21 12.6587 579.087 12.8427 578.842 13.088C578.597 13.2107 578.413 13.272 578.29 13.272C578.167 13.272 577.983 13.1493 577.738 12.904C577.37 10.696 576.266 9.03999 574.426 7.93599C572.586 6.70933 570.317 6.09599 567.618 6.09599C566.759 6.09599 565.778 6.15733 564.674 6.27999C563.693 6.40266 562.711 6.64799 561.73 7.01599C558.295 8.24266 555.045 10.7573 551.978 14.56C548.911 18.24 545.599 23.1467 542.042 29.28C540.815 31.6107 539.221 34.6773 537.258 38.48C535.295 42.16 533.21 46.1467 531.002 50.44C528.917 54.7333 526.893 58.904 524.93 62.952C523.09 67 521.495 70.4347 520.146 73.256C519.533 74.728 518.49 76.9973 517.018 80.064C515.546 83.008 513.951 86.2587 512.234 89.816C510.639 93.2507 509.229 96.44 508.002 99.384C506.898 102.328 506.346 104.413 506.346 105.64C506.346 107.357 507.082 108.216 508.554 108.216C510.026 108.216 511.989 107.357 514.442 105.64C516.895 103.8 519.41 101.592 521.986 99.016C524.685 96.3173 527.077 93.7413 529.162 91.288C531.37 88.8347 532.903 86.9947 533.762 85.768C534.13 86.136 534.314 86.5653 534.314 87.056C534.314 87.9147 533.946 88.7733 533.21 89.632C532.597 90.4907 532.045 91.2267 531.554 91.84C529.346 94.784 526.586 97.9733 523.274 101.408C520.085 104.72 516.589 107.603 512.786 110.056C508.983 112.387 505.119 113.552 501.194 113.552ZM481.322 107.112C482.794 107.112 484.818 106.069 487.394 103.984C490.093 101.776 492.975 99.0773 496.042 95.888C499.109 92.576 501.991 89.1413 504.69 85.584C507.389 81.904 509.597 78.592 511.314 75.648C513.154 72.5813 514.074 70.2507 514.074 68.656C514.074 67.3067 513.645 66.3867 512.786 65.896C512.05 65.4053 511.069 65.16 509.842 65.16C507.879 65.16 505.733 65.896 503.402 67.368C501.194 68.7173 499.415 70.0667 498.066 71.416C496.594 72.7653 494.815 74.912 492.73 77.856C490.767 80.6773 488.805 83.8053 486.842 87.24C484.879 90.6747 483.223 93.9867 481.874 97.176C480.525 100.365 479.85 102.941 479.85 104.904C479.85 106.376 480.341 107.112 481.322 107.112ZM555.28 113.552C554.053 113.552 553.011 113.307 552.152 112.816C551.293 112.325 550.864 111.405 550.864 110.056C550.864 108.339 551.293 106.376 552.152 104.168C553.011 101.96 553.992 99.8133 555.096 97.728C556.2 95.52 557.181 93.7413 558.04 92.392C553.747 96.9307 549.269 101.224 544.608 105.272C542.277 107.235 539.701 109.075 536.88 110.792C534.059 112.509 531.053 113.368 527.864 113.368C526.637 113.368 525.779 113 525.288 112.264C524.797 111.405 524.552 110.424 524.552 109.32C524.552 108.707 524.613 108.277 524.736 108.032C525.349 103.248 526.883 98.28 529.336 93.128C531.789 87.976 534.795 83.1307 538.352 78.592C541.909 74.0533 545.528 70.3733 549.208 67.552C552.029 65.4667 554.728 64.1787 557.304 63.688C559.88 63.0747 562.701 62.768 565.768 62.768H571.84C573.803 59.456 575.827 55.776 577.912 51.728C580.12 47.5573 582.267 43.448 584.352 39.4C586.56 35.352 588.584 31.7947 590.424 28.728C595.453 20.1413 600.973 13.272 606.984 8.11999C613.117 2.96799 619.925 0.391991 627.408 0.391991C629.003 0.391991 630.475 0.882659 631.824 1.86399C633.173 2.72266 633.787 4.072 633.664 5.912L633.296 12.536C633.296 12.6587 633.173 12.8427 632.928 13.088C632.683 13.2107 632.499 13.272 632.376 13.272C632.253 13.272 632.069 13.1493 631.824 12.904C631.456 10.696 630.352 9.03999 628.512 7.93599C626.672 6.70933 624.403 6.09599 621.704 6.09599C620.845 6.09599 619.864 6.15733 618.76 6.27999C617.779 6.40266 616.797 6.64799 615.816 7.01599C612.381 8.24266 609.131 10.7573 606.064 14.56C602.997 18.24 599.685 23.1467 596.128 29.28C594.901 31.6107 593.307 34.6773 591.344 38.48C589.381 42.16 587.296 46.1467 585.088 50.44C583.003 54.7333 580.979 58.904 579.016 62.952C577.176 67 575.581 70.4347 574.232 73.256C573.619 74.728 572.576 76.9973 571.104 80.064C569.632 83.008 568.037 86.2587 566.32 89.816C564.725 93.2507 563.315 96.44 562.088 99.384C560.984 102.328 560.432 104.413 560.432 105.64C560.432 107.357 561.168 108.216 562.64 108.216C564.112 108.216 566.075 107.357 568.528 105.64C570.981 103.8 573.496 101.592 576.072 99.016C578.771 96.3173 581.163 93.7413 583.248 91.288C585.456 88.8347 586.989 86.9947 587.848 85.768C588.216 86.136 588.4 86.5653 588.4 87.056C588.4 87.9147 588.032 88.7733 587.296 89.632C586.683 90.4907 586.131 91.2267 585.64 91.84C583.432 94.784 580.672 97.9733 577.36 101.408C574.171 104.72 570.675 107.603 566.872 110.056C563.069 112.387 559.205 113.552 555.28 113.552ZM535.408 107.112C536.88 107.112 538.904 106.069 541.48 103.984C544.179 101.776 547.061 99.0773 550.128 95.888C553.195 92.576 556.077 89.1413 558.776 85.584C561.475 81.904 563.683 78.592 565.4 75.648C567.24 72.5813 568.16 70.2507 568.16 68.656C568.16 67.3067 567.731 66.3867 566.872 65.896C566.136 65.4053 565.155 65.16 563.928 65.16C561.965 65.16 559.819 65.896 557.488 67.368C555.28 68.7173 553.501 70.0667 552.152 71.416C550.68 72.7653 548.901 74.912 546.816 77.856C544.853 80.6773 542.891 83.8053 540.928 87.24C538.965 90.6747 537.309 93.9867 535.96 97.176C534.611 100.365 533.936 102.941 533.936 104.904C533.936 106.376 534.427 107.112 535.408 107.112ZM609.366 113.552C608.139 113.552 607.097 113.307 606.238 112.816C605.379 112.325 604.95 111.405 604.95 110.056C604.95 108.339 605.379 106.376 606.238 104.168C607.097 101.96 608.078 99.8133 609.182 97.728C610.286 95.52 611.267 93.7413 612.126 92.392C607.833 96.9307 603.355 101.224 598.694 105.272C596.363 107.235 593.787 109.075 590.966 110.792C588.145 112.509 585.139 113.368 581.95 113.368C580.723 113.368 579.865 113 579.374 112.264C578.883 111.405 578.638 110.424 578.638 109.32C578.638 108.707 578.699 108.277 578.822 108.032C579.435 103.248 580.969 98.28 583.422 93.128C585.875 87.976 588.881 83.1307 592.438 78.592C595.995 74.0533 599.614 70.3733 603.294 67.552C607.465 64.3627 612.065 62.768 617.094 62.768H638.254C638.867 62.768 639.174 63.0133 639.174 63.504C639.174 64.4853 638.622 64.976 637.518 64.976C636.291 64.976 635.065 65.7733 633.838 67.368C632.611 68.84 631.691 70.0667 631.078 71.048C630.219 72.3973 628.87 74.6667 627.03 77.856C625.19 81.0453 623.289 84.5413 621.326 88.344C619.486 92.024 617.891 95.4587 616.542 98.648C615.193 101.837 614.518 104.168 614.518 105.64C614.518 107.357 615.377 108.216 617.094 108.216C618.934 108.216 621.019 107.357 623.35 105.64C625.681 103.923 628.011 101.837 630.342 99.384C632.795 96.808 635.003 94.2933 636.966 91.84C639.051 89.264 640.707 87.24 641.934 85.768C642.67 86.504 642.609 87.5467 641.75 88.896C641.014 90.1227 640.339 91.104 639.726 91.84C637.273 95.0293 634.451 98.3413 631.262 101.776C628.073 105.088 624.577 107.909 620.774 110.24C617.094 112.448 613.291 113.552 609.366 113.552ZM589.494 107.112C590.966 107.112 592.99 106.069 595.566 103.984C598.265 101.776 601.147 99.0773 604.214 95.888C607.281 92.576 610.163 89.1413 612.862 85.584C615.561 81.904 617.769 78.592 619.486 75.648C621.326 72.5813 622.246 70.2507 622.246 68.656C622.246 67.3067 621.817 66.3867 620.958 65.896C620.222 65.4053 619.241 65.16 618.014 65.16C616.051 65.16 613.905 65.896 611.574 67.368C609.366 68.7173 607.587 70.0667 606.238 71.416C604.766 72.7653 602.987 74.912 600.902 77.856C598.939 80.6773 596.977 83.8053 595.014 87.24C593.051 90.6747 591.395 93.9867 590.046 97.176C588.697 100.365 588.022 102.941 588.022 104.904C588.022 106.376 588.513 107.112 589.494 107.112ZM639.532 115.576C639.041 115.576 639.041 115.085 639.532 114.104C640.145 113 640.697 111.773 641.188 110.424C641.801 109.075 642.415 107.603 643.028 106.008C644.255 103.064 645.604 99.752 647.076 96.072C648.548 92.392 649.959 88.8347 651.308 85.4C652.657 81.8427 653.823 78.8373 654.804 76.384C655.908 73.808 656.644 72.152 657.012 71.416C655.295 73.256 653.209 75.5867 650.756 78.408C648.425 81.1067 646.217 83.744 644.132 86.32C642.047 88.896 640.452 90.92 639.348 92.392C638.98 92.8827 638.673 93.128 638.428 93.128C638.183 93.128 638.06 92.8213 638.06 92.208C638.06 91.2267 638.367 90.3067 638.98 89.448C641.311 86.504 643.887 83.192 646.708 79.512C649.652 75.832 652.289 72.4587 654.62 69.392C656.951 66.2027 658.423 64.1173 659.036 63.136C660.385 62.8907 662.348 62.5227 664.924 62.032C667.623 61.5413 669.463 60.8667 670.444 60.008C670.812 59.64 671.18 59.456 671.548 59.456C671.793 59.456 671.916 59.7013 671.916 60.192C672.039 60.56 671.916 60.9893 671.548 61.48C670.812 62.216 669.708 63.8107 668.236 66.264C666.887 68.7173 665.353 71.5387 663.636 74.728C661.919 77.9173 660.263 80.984 658.668 83.928C659.895 82.088 661.489 79.9413 663.452 77.488C665.537 74.912 667.807 72.4587 670.26 70.128C672.713 67.6747 675.167 65.6507 677.62 64.056C680.196 62.4613 682.588 61.664 684.796 61.664C686.391 61.664 687.74 62.032 688.844 62.768C689.948 63.3813 690.807 64.5467 691.42 66.264C691.788 67.1227 691.972 68.104 691.972 69.208C691.972 71.2933 691.42 73.3173 690.316 75.28C689.335 77.12 688.599 78.5307 688.108 79.512C687.985 79.88 687.556 80.248 686.82 80.616C686.084 80.8613 685.777 80.7387 685.9 80.248C686.023 79.6347 686.084 79.0213 686.084 78.408C686.207 77.7947 686.268 77.12 686.268 76.384C686.268 74.2987 685.839 72.3973 684.98 70.68C684.244 68.9627 682.833 68.104 680.748 68.104C678.785 68.104 676.393 69.3307 673.572 71.784C670.751 74.2373 667.929 77.0587 665.108 80.248C661.551 84.4187 658.729 88.4053 656.644 92.208C654.559 95.888 652.841 99.5067 651.492 103.064C650.756 105.027 650.02 106.989 649.284 108.952C648.548 110.792 647.996 112.264 647.628 113.368C646.033 113.491 644.439 113.859 642.844 114.472C641.249 115.208 640.145 115.576 639.532 115.576Z" fill="black"/>
</svg>
